<svg width="20" height="20" viewBox="0 0 20 20" fill="none" xmlns="http://www.w3.org/2000/svg">
    <rect width="20" height="20" fill="white"/>
    <path d="M3.33967 9.272C3.00642 9.076 2.90645 8.649 3.09307 8.313L4.09282 6.5C4.16614 6.36 4.27944 6.262 4.40608 6.206L9.62478 3.126C9.73142 3.042 9.86472 3 10.0047 3C10.1447 3 10.278 3.042 10.3846 3.126L15.65 6.234C15.7766 6.304 15.8832 6.416 15.9432 6.556L16.9096 8.32C17.0963 8.656 16.983 9.083 16.6697 9.272L16.0032 9.678V13.15C16.0032 13.416 15.8632 13.647 15.65 13.766L10.3846 16.874C10.278 16.958 10.1447 17 10.0047 17C9.86472 17 9.73142 16.958 9.62478 16.874L4.35942 13.766C4.14614 13.647 4.00618 13.416 4.00618 13.15V9.272C3.80623 9.391 3.55296 9.398 3.33967 9.272ZM10.0047 4.505V9.195L13.977 6.85L10.0047 4.505ZM5.33918 12.737L9.33818 15.103V10.406L5.33918 8.047V12.737ZM14.6702 12.737V10.483L11.3377 12.513C11.1177 12.639 10.8711 12.632 10.6712 12.52V15.103L14.6702 12.737ZM11.2377 10.952L15.4233 8.411L15.0368 7.704L10.8511 10.245L11.2377 10.952Z" fill="#444444"/>
</svg>
