<svg width="20" height="20" viewBox="0 0 20 20" fill="none" xmlns="http://www.w3.org/2000/svg">
    <rect x="2.49683" y="2.49683" width="15.0062" height="15.0062" rx="5" fill="#F28482"/>
    <path fill-rule="evenodd" clip-rule="evenodd" d="M9.39555 6.08177L6.73861 10.5962C6.64363 10.7547 6.6404 10.9519 6.73014 11.1135C6.81988 11.2751 6.98898 11.3766 7.17379 11.3798H9.6615V13.6499C9.65622 13.8806 9.80763 14.0856 10.0296 14.1484C10.2516 14.2112 10.488 14.1159 10.6044 13.9167L13.2613 9.40399C13.3563 9.24541 13.3595 9.04823 13.2698 8.88663C13.1801 8.72503 13.011 8.62353 12.8261 8.62033H10.3384V6.35022C10.3445 6.11924 10.1934 5.91347 9.97114 5.8502C9.74891 5.78693 9.51205 5.88223 9.39555 6.08177Z" fill="white"/>
</svg>
