<svg width="114" height="42" viewBox="0 0 114 42" fill="none" xmlns="http://www.w3.org/2000/svg">
    <path d="M58.56 4C60.3733 4 61.8 4.43333 62.84 5.3C63.88 6.16667 64.4 7.36 64.4 8.88C64.4 10.4 63.88 11.5933 62.84 12.46C61.8 13.3267 60.3733 13.76 58.56 13.76H55.1V18H53.1V4H58.56ZM58.5 12.02C59.7667 12.02 60.7333 11.7533 61.4 11.22C62.0667 10.6733 62.4 9.89333 62.4 8.88C62.4 7.86667 62.0667 7.09333 61.4 6.56C60.7333 6.01333 59.7667 5.74 58.5 5.74H55.1V12.02H58.5ZM74.8536 18.16C73.4403 18.16 72.1669 17.8533 71.0336 17.24C69.9003 16.6133 69.0069 15.7533 68.3536 14.66C67.7136 13.5667 67.3936 12.3467 67.3936 11C67.3936 9.65333 67.7136 8.43333 68.3536 7.34C69.0069 6.24667 69.9003 5.39333 71.0336 4.78C72.1669 4.15333 73.4403 3.84 74.8536 3.84C76.2536 3.84 77.5203 4.15333 78.6536 4.78C79.7869 5.39333 80.6736 6.24667 81.3136 7.34C81.9536 8.42 82.2736 9.64 82.2736 11C82.2736 12.36 81.9536 13.5867 81.3136 14.68C80.6736 15.76 79.7869 16.6133 78.6536 17.24C77.5203 17.8533 76.2536 18.16 74.8536 18.16ZM74.8536 16.38C75.8803 16.38 76.8003 16.1467 77.6136 15.68C78.4403 15.2133 79.0869 14.5733 79.5536 13.76C80.0336 12.9333 80.2736 12.0133 80.2736 11C80.2736 9.98667 80.0336 9.07333 79.5536 8.26C79.0869 7.43333 78.4403 6.78667 77.6136 6.32C76.8003 5.85333 75.8803 5.62 74.8536 5.62C73.8269 5.62 72.8936 5.85333 72.0536 6.32C71.2269 6.78667 70.5736 7.43333 70.0936 8.26C69.6269 9.07333 69.3936 9.98667 69.3936 11C69.3936 12.0133 69.6269 12.9333 70.0936 13.76C70.5736 14.5733 71.2269 15.2133 72.0536 15.68C72.8936 16.1467 73.8269 16.38 74.8536 16.38ZM90.4105 18.16C89.3571 18.16 88.3371 18 87.3505 17.68C86.3771 17.3467 85.6105 16.92 85.0505 16.4L85.7905 14.84C86.3238 15.32 87.0038 15.7133 87.8305 16.02C88.6705 16.3133 89.5305 16.46 90.4105 16.46C91.5705 16.46 92.4371 16.2667 93.0105 15.88C93.5838 15.48 93.8705 14.9533 93.8705 14.3C93.8705 13.82 93.7105 13.4333 93.3905 13.14C93.0838 12.8333 92.6971 12.6 92.2305 12.44C91.7771 12.28 91.1305 12.1 90.2905 11.9C89.2371 11.6467 88.3838 11.3933 87.7305 11.14C87.0905 10.8867 86.5371 10.5 86.0705 9.98C85.6171 9.44667 85.3905 8.73333 85.3905 7.84C85.3905 7.09333 85.5838 6.42 85.9705 5.82C86.3705 5.22 86.9705 4.74 87.7705 4.38C88.5705 4.02 89.5638 3.84 90.7505 3.84C91.5771 3.84 92.3905 3.94667 93.1905 4.16C93.9905 4.37333 94.6771 4.68 95.2505 5.08L94.5905 6.68C94.0038 6.30667 93.3771 6.02667 92.7105 5.84C92.0438 5.64 91.3905 5.54 90.7505 5.54C89.6171 5.54 88.7638 5.74667 88.1905 6.16C87.6305 6.57333 87.3505 7.10667 87.3505 7.76C87.3505 8.24 87.5105 8.63333 87.8305 8.94C88.1505 9.23333 88.5438 9.46667 89.0105 9.64C89.4905 9.8 90.1371 9.97333 90.9505 10.16C92.0038 10.4133 92.8505 10.6667 93.4905 10.92C94.1305 11.1733 94.6771 11.56 95.1305 12.08C95.5971 12.6 95.8305 13.3 95.8305 14.18C95.8305 14.9133 95.6305 15.5867 95.2305 16.2C94.8305 16.8 94.2238 17.28 93.4105 17.64C92.5971 17.9867 91.5971 18.16 90.4105 18.16ZM57.18 38.16C56.1267 38.16 55.1067 38 54.12 37.68C53.1467 37.3467 52.38 36.92 51.82 36.4L52.56 34.84C53.0933 35.32 53.7733 35.7133 54.6 36.02C55.44 36.3133 56.3 36.46 57.18 36.46C58.34 36.46 59.2067 36.2667 59.78 35.88C60.3533 35.48 60.64 34.9533 60.64 34.3C60.64 33.82 60.48 33.4333 60.16 33.14C59.8533 32.8333 59.4667 32.6 59 32.44C58.5467 32.28 57.9 32.1 57.06 31.9C56.0067 31.6467 55.1533 31.3933 54.5 31.14C53.86 30.8867 53.3067 30.5 52.84 29.98C52.3867 29.4467 52.16 28.7333 52.16 27.84C52.16 27.0933 52.3533 26.42 52.74 25.82C53.14 25.22 53.74 24.74 54.54 24.38C55.34 24.02 56.3333 23.84 57.52 23.84C58.3467 23.84 59.16 23.9467 59.96 24.16C60.76 24.3733 61.4467 24.68 62.02 25.08L61.36 26.68C60.7733 26.3067 60.1467 26.0267 59.48 25.84C58.8133 25.64 58.16 25.54 57.52 25.54C56.3867 25.54 55.5333 25.7467 54.96 26.16C54.4 26.5733 54.12 27.1067 54.12 27.76C54.12 28.24 54.28 28.6333 54.6 28.94C54.92 29.2333 55.3133 29.4667 55.78 29.64C56.26 29.8 56.9067 29.9733 57.72 30.16C58.7733 30.4133 59.62 30.6667 60.26 30.92C60.9 31.1733 61.4467 31.56 61.9 32.08C62.3667 32.6 62.6 33.3 62.6 34.18C62.6 34.9133 62.4 35.5867 62 36.2C61.6 36.8 60.9933 37.28 60.18 37.64C59.3667 37.9867 58.3667 38.16 57.18 38.16ZM78.5619 24V38H76.5619V31.76H68.5219V38H66.5219V24H68.5219V30.02H76.5619V24H78.5619ZM90.0723 38.16C88.659 38.16 87.3857 37.8533 86.2523 37.24C85.119 36.6133 84.2257 35.7533 83.5723 34.66C82.9323 33.5667 82.6123 32.3467 82.6123 31C82.6123 29.6533 82.9323 28.4333 83.5723 27.34C84.2257 26.2467 85.119 25.3933 86.2523 24.78C87.3857 24.1533 88.659 23.84 90.0723 23.84C91.4723 23.84 92.739 24.1533 93.8723 24.78C95.0057 25.3933 95.8923 26.2467 96.5323 27.34C97.1723 28.42 97.4923 29.64 97.4923 31C97.4923 32.36 97.1723 33.5867 96.5323 34.68C95.8923 35.76 95.0057 36.6133 93.8723 37.24C92.739 37.8533 91.4723 38.16 90.0723 38.16ZM90.0723 36.38C91.099 36.38 92.019 36.1467 92.8323 35.68C93.659 35.2133 94.3057 34.5733 94.7723 33.76C95.2523 32.9333 95.4923 32.0133 95.4923 31C95.4923 29.9867 95.2523 29.0733 94.7723 28.26C94.3057 27.4333 93.659 26.7867 92.8323 26.32C92.019 25.8533 91.099 25.62 90.0723 25.62C89.0457 25.62 88.1123 25.8533 87.2723 26.32C86.4457 26.7867 85.7923 27.4333 85.3123 28.26C84.8457 29.0733 84.6123 29.9867 84.6123 31C84.6123 32.0133 84.8457 32.9333 85.3123 33.76C85.7923 34.5733 86.4457 35.2133 87.2723 35.68C88.1123 36.1467 89.0457 36.38 90.0723 36.38ZM107.009 24C108.823 24 110.249 24.4333 111.289 25.3C112.329 26.1667 112.849 27.36 112.849 28.88C112.849 30.4 112.329 31.5933 111.289 32.46C110.249 33.3267 108.823 33.76 107.009 33.76H103.549V38H101.549V24H107.009ZM106.949 32.02C108.216 32.02 109.183 31.7533 109.849 31.22C110.516 30.6733 110.849 29.8933 110.849 28.88C110.849 27.8667 110.516 27.0933 109.849 26.56C109.183 26.0133 108.216 25.74 106.949 25.74H103.549V32.02H106.949Z" fill="#F28482"/>
    <path d="M21.9462 11.8C24.3035 11.8 26.1582 12.3633 27.5102 13.49C28.8622 14.6167 29.5382 16.168 29.5382 18.144C29.5382 20.12 28.8622 21.6713 27.5102 22.798C26.1582 23.9247 24.3035 24.488 21.9462 24.488H17.4482V30H14.8482V11.8H21.9462ZM21.8682 22.226C23.5148 22.226 24.7715 21.8793 25.6382 21.186C26.5048 20.4753 26.9382 19.4613 26.9382 18.144C26.9382 16.8267 26.5048 15.8213 25.6382 15.128C24.7715 14.4173 23.5148 14.062 21.8682 14.062H17.4482V22.226H21.8682Z" fill="#F28482"/>
    <path d="M21.3175 41H41V1H1V21" stroke="#F28482" stroke-width="2"/>
</svg>
